<?xml version="1.0" encoding="utf-8"?>
<svg version="1.1" xmlns:xlink="http://www.w3.org/1999/xlink" width="10px" height="17px" xmlns="http://www.w3.org/2000/svg">
  <g transform="matrix(1 0 0 1 -354 -248 )">
    <path d="M 9.82817869415811 8.10821643286571  C 9.94272623138602 8.22177688710754  10 8.35237140948565  10 8.49999999999999  C 10 8.64762859051435  9.94272623138602 8.77822311289246  9.82817869415811 8.89178356713428  L 1.82130584192436 16.8296593186373  C 1.70675830469645 16.9432197728791  1.57502863688433 17  1.42611683848799 17  C 1.27720504009164 17  1.14547537227952 16.9432197728791  1.03092783505156 16.8296593186373  L 0.171821305841888 15.9779559118236  C 0.0572737686139817 15.8643954575818  0 15.7338009352038  0 15.5861723446894  C 0 15.438543754175  0.0572737686139817 15.3079492317969  0.171821305841888 15.1943887775551  L 6.92439862542955 8.49999999999999  L 0.171821305841888 1.80561122244488  C 0.0572737686139817 1.69205076820309  0 1.56145624582498  0 1.41382765531064  C 0 1.26619906479624  0.0572737686139817 1.13560454241816  0.171821305841888 1.02204408817634  L 1.03092783505156 0.170340681362733  C 1.14547537227952 0.056780227120911  1.27720504009164 0  1.42611683848799 0  C 1.57502863688433 0  1.70675830469645 0.056780227120911  1.82130584192436 0.170340681362733  L 9.82817869415811 8.10821643286571  Z " fill-rule="nonzero" fill="#cccccc" stroke="none" transform="matrix(1 0 0 1 354 248 )" />
  </g>
</svg>